<?xml version="1.0" standalone="no"?>
<!DOCTYPE svg PUBLIC "-//W3C//DTD SVG 20010904//EN"
 "http://www.w3.org/TR/2001/REC-SVG-20010904/DTD/svg10.dtd">
<svg version="1.0" xmlns="http://www.w3.org/2000/svg"
 width="500.000000pt" height="500.000000pt" viewBox="0 0 500.000000 500.000000"
 preserveAspectRatio="xMidYMid meet">

<g transform="translate(0.000000,500.000000) scale(0.100000,-0.100000)"
fill="#000000" stroke="none">
<path d="M2240 4065 c-47 -7 -91 -14 -97 -14 -8 -1 -13 -15 -13 -37 0 -34 1
-36 28 -29 15 4 74 13 132 21 164 22 323 18 533 -12 l47 -7 0 31 c0 36 0 36
-123 52 -106 14 -402 11 -507 -5z m543 -15 c21 0 27 -5 27 -21 0 -15 -4 -19
-16 -15 -9 3 -31 6 -50 6 -28 0 -34 4 -34 21 0 17 4 20 23 15 12 -3 34 -6 50
-6z m-493 -14 c0 -8 -15 -16 -37 -20 -58 -9 -73 -7 -73 8 0 17 19 23 73 25 25
1 37 -3 37 -13z"/>
<path d="M2245 3965 c-114 -19 -115 -19 -115 -50 0 -30 -7 -29 105 -9 119 22
425 23 548 2 l87 -15 0 27 c0 26 -4 29 -62 40 -98 19 -455 22 -563 5z m559
-26 c17 -15 1 -19 -47 -13 -28 4 -47 12 -47 19 0 15 78 9 94 -6z m-514 1 c0
-5 -3 -10 -7 -10 -5 -1 -27 -5 -51 -9 -47 -9 -67 4 -30 18 31 13 88 13 88 1z"/>
<path d="M1992 3930 c-92 -54 -89 -47 -52 -140 l33 -81 -29 -30 c-15 -16 -33
-29 -38 -29 -6 0 -46 14 -89 31 -43 17 -79 30 -81 28 -21 -30 -126 -223 -124
-228 2 -5 32 -32 66 -61 62 -50 64 -53 57 -89 -8 -47 -23 -57 -92 -65 -112
-13 -103 0 -103 -151 l0 -133 89 -12 89 -13 12 -46 12 -46 -38 -30 c-21 -16
-51 -42 -67 -56 -34 -29 -38 -16 50 -166 l53 -92 72 30 c39 16 76 29 82 29 7
0 26 -15 43 -32 l31 -33 -28 -70 c-16 -38 -29 -75 -29 -81 -1 -10 198 -132
222 -137 5 -1 18 9 28 23 18 24 19 28 4 69 -8 24 -15 65 -15 92 l0 48 -74 55
c-184 136 -283 321 -294 549 -10 222 59 398 220 556 l65 63 -5 142 c-2 77 -5
141 -6 142 0 1 -29 -16 -64 -36z"/>
<path d="M2934 3823 l7 -148 68 -70 c148 -152 211 -304 211 -510 0 -158 -43
-291 -135 -420 -45 -63 -126 -142 -175 -172 -24 -14 -28 -23 -34 -86 -3 -39
-15 -91 -27 -115 -19 -44 -19 -47 -2 -63 17 -17 23 -14 128 47 61 35 111 68
113 73 1 5 -10 42 -27 82 l-29 74 31 33 c17 17 38 32 46 32 9 0 46 -13 83 -29
49 -21 70 -26 76 -17 19 25 122 213 122 222 -1 5 -30 31 -66 57 -62 46 -65 50
-59 80 14 67 10 65 105 78 l90 12 0 133 c0 152 12 135 -109 154 -36 5 -68 13
-72 17 -4 4 -11 26 -14 48 -5 40 -5 41 60 90 36 27 65 54 65 59 0 7 -113 210
-126 225 -2 2 -38 -11 -81 -28 -43 -17 -83 -31 -89 -31 -5 0 -23 13 -38 29
l-28 29 31 82 c17 44 29 85 26 90 -5 9 -143 90 -152 90 -3 0 -3 -66 1 -147z"/>
<path d="M2295 3890 c-38 -5 -90 -13 -115 -18 l-45 -8 -3 -194 -2 -194 22 21
c68 62 196 96 358 96 136 0 256 -28 320 -74 l40 -29 0 188 0 188 -62 13 c-79
16 -420 23 -513 11z m-5 -159 l0 -129 -27 -10 c-76 -29 -70 -37 -78 109 -4 72
-3 134 1 139 9 9 43 16 82 19 22 1 22 0 22 -128z m514 113 c22 -22 24 -279 2
-271 -8 3 -32 11 -55 18 l-41 12 0 129 0 128 39 0 c23 0 46 -7 55 -16z m-250
-66 c22 -31 20 -64 -6 -88 -42 -39 -103 -19 -114 38 -12 62 84 102 120 50z"/>
<path d="M2003 3588 c-82 -85 -134 -169 -169 -275 -26 -79 -29 -101 -28 -218
0 -113 3 -140 27 -210 34 -102 86 -190 156 -263 55 -57 136 -122 153 -122 4 0
8 15 8 34 0 28 -7 38 -40 61 -83 57 -172 180 -210 287 -76 218 -32 458 116
627 46 53 54 68 54 102 0 21 -1 39 -3 39 -1 0 -30 -28 -64 -62z"/>
<path d="M2930 3607 c0 -20 9 -44 21 -58 136 -155 184 -273 183 -454 -1 -91
-6 -124 -28 -191 -33 -102 -106 -215 -179 -280 -47 -40 -57 -55 -57 -81 0 -18
3 -33 7 -33 14 0 81 56 133 111 220 230 252 591 77 859 -32 48 -136 160 -149
160 -4 0 -8 -15 -8 -33z"/>
<path d="M2420 3200 c0 -398 0 -400 -62 -438 -18 -11 -51 -25 -73 -32 -73 -23
-75 -27 -75 -172 0 -79 4 -128 10 -128 6 0 10 48 10 124 0 133 2 139 55 152
46 11 97 39 125 69 l25 27 5 355 c5 336 6 355 24 369 30 21 62 17 85 -12 20
-26 21 -38 21 -351 0 -355 0 -356 60 -407 17 -14 54 -32 82 -41 79 -23 78 -21
78 -161 0 -76 4 -124 10 -124 6 0 10 49 10 128 0 147 -1 149 -85 177 -27 10
-63 27 -79 38 -54 38 -56 55 -56 437 l0 350 -85 0 -85 0 0 -360z"/>
<path d="M2466 3514 c-14 -13 -16 -60 -16 -357 0 -336 0 -341 -22 -373 -25
-37 -77 -69 -140 -88 l-43 -12 -3 -127 -3 -127 24 0 c19 0 25 8 35 45 13 50
68 117 116 142 38 20 151 22 186 4 64 -34 130 -121 130 -172 0 -14 7 -19 25
-19 l26 0 -3 127 -3 127 -60 21 c-80 28 -112 51 -136 96 -18 36 -19 61 -19
361 0 277 -2 327 -16 346 -18 26 -56 29 -78 6z m57 -297 c12 -10 17 -29 17
-66 l0 -52 -35 27 c-32 24 -35 31 -35 76 0 52 4 53 53 15z m0 -130 c16 -13 24
-37 12 -37 -14 0 -65 45 -65 57 0 14 16 8 53 -20z"/>
<path d="M2139 3275 c20 -57 9 -80 -40 -80 -30 0 -37 5 -55 42 -18 35 -24 40
-33 29 -37 -45 -14 -144 40 -171 58 -30 143 -11 166 37 21 43 25 68 13 103
-13 38 -62 85 -90 85 -17 0 -17 -2 -1 -45z"/>
<path d="M2802 3286 c-34 -31 -37 -39 -36 -85 0 -27 5 -56 11 -63 9 -10 -3
-48 -48 -157 -36 -85 -57 -147 -51 -153 5 -5 26 33 51 94 46 112 63 133 92
117 26 -14 24 -27 -21 -138 -43 -104 -45 -111 -31 -111 7 0 45 83 117 256 3 6
-8 14 -23 17 -15 3 -37 13 -48 22 l-20 17 20 -8 c78 -29 152 -7 181 54 17 37
14 93 -7 118 -9 11 -15 6 -33 -29 -18 -37 -25 -42 -55 -42 -49 0 -60 23 -40
80 16 43 16 45 -2 45 -11 0 -36 -15 -57 -34z"/>
<path d="M2199 3094 c-9 -8 -32 -21 -51 -27 l-36 -13 50 -119 c27 -66 53 -129
58 -140 7 -17 9 -18 14 -4 4 9 -11 56 -34 109 -45 104 -48 125 -22 139 31 16
48 -5 92 -114 23 -58 46 -105 51 -105 16 0 10 20 -42 144 -66 157 -61 149 -80
130z"/>
<path d="M2176 3021 c-4 -6 13 -59 38 -118 36 -88 47 -107 62 -105 11 2 21 6
23 8 2 2 -16 52 -40 111 -42 102 -66 132 -83 104z"/>
<path d="M2787 3023 c-3 -5 -24 -53 -47 -107 -33 -78 -39 -101 -28 -107 7 -5
18 -9 23 -9 13 0 97 208 90 221 -7 11 -32 12 -38 2z"/>
<path d="M2214 2358 c29 -183 245 -297 418 -220 65 28 113 76 148 144 29 59
40 118 21 118 -5 0 -12 -17 -16 -37 -15 -82 -81 -165 -161 -202 -63 -30 -162
-29 -229 3 -70 32 -132 105 -152 178 -19 68 -39 79 -29 16z"/>
<path d="M2240 2392 c0 -34 36 -115 67 -151 129 -151 384 -108 453 76 26 71
26 83 -5 83 -18 0 -25 -5 -25 -19 0 -67 -77 -154 -159 -177 -46 -14 -63 -14
-109 -4 -73 16 -145 84 -163 153 -11 39 -17 47 -36 47 -13 0 -23 -4 -23 -8z"/>
<path d="M986 1840 c-3 -19 -10 -71 -16 -115 -6 -44 -13 -90 -16 -102 -4 -20
0 -23 26 -23 27 0 30 3 31 33 0 17 3 50 7 72 l7 40 37 -58 36 -59 38 59 38 58
7 -40 c4 -22 8 -55 8 -72 1 -30 4 -33 31 -33 26 0 30 3 25 23 -2 12 -11 71
-20 131 -8 61 -17 111 -18 112 -2 2 -25 -33 -52 -76 -28 -44 -52 -80 -55 -80
-3 0 -28 37 -57 82 l-51 82 -6 -34z"/>
<path d="M1574 1856 c-47 -21 -74 -65 -74 -123 1 -26 6 -58 14 -71 20 -36 66
-62 113 -62 62 0 93 15 93 45 0 30 2 29 -44 10 -92 -39 -167 66 -97 136 33 32
62 36 105 14 37 -19 36 -19 36 11 0 19 -8 28 -35 40 -42 17 -71 17 -111 0z"/>
<path d="M2105 1764 c-83 -174 -80 -164 -46 -164 22 0 31 6 41 30 11 27 17 30
60 30 43 0 49 -3 60 -30 10 -24 19 -30 42 -30 16 0 28 4 26 9 -13 35 -124 260
-128 260 -3 0 -27 -47 -55 -105z m74 -25 c6 -18 11 -34 11 -35 0 -2 -13 -4
-30 -4 -16 0 -30 2 -30 4 0 14 24 66 30 66 4 0 13 -14 19 -31z"/>
<path d="M2320 1736 l0 -136 25 0 c23 0 24 2 27 80 l3 81 87 -81 c47 -44 89
-80 92 -80 3 0 6 59 6 130 l0 130 -25 0 c-24 0 -25 -2 -25 -75 0 -41 -4 -75
-8 -75 -5 0 -17 10 -28 21 -10 12 -49 48 -86 81 l-68 60 0 -136z"/>
<path d="M2794 1856 c-133 -58 -92 -256 53 -256 57 0 83 14 83 46 0 22 -2 24
-21 13 -39 -20 -91 -14 -116 16 -34 39 -31 87 8 119 35 30 58 32 99 11 30 -15
30 -15 30 14 0 24 -6 31 -31 40 -41 14 -67 13 -105 -3z"/>
<path d="M3325 1744 c-33 -70 -61 -131 -63 -135 -2 -5 8 -9 23 -9 21 0 29 7
38 30 11 28 15 30 63 30 48 0 52 -2 64 -30 9 -21 19 -30 36 -30 13 0 24 3 24
8 -1 4 -29 64 -63 135 l-62 128 -60 -127z m80 0 c8 -20 15 -38 15 -40 0 -2
-16 -4 -35 -4 -19 0 -35 2 -35 5 0 7 33 75 37 75 1 0 10 -16 18 -36z"/>
<path d="M1290 1730 l0 -131 83 3 c65 2 82 6 82 18 0 11 -15 16 -55 20 l-55 5
-3 38 -3 37 55 0 c49 0 56 2 56 20 0 18 -7 20 -55 20 -54 0 -55 0 -55 30 l0
30 60 0 c53 0 60 2 60 20 0 18 -7 20 -85 20 l-85 0 0 -130z"/>
<path d="M1770 1730 l0 -130 25 0 c22 0 24 4 27 58 l3 57 60 0 60 0 3 -57 c3
-54 5 -58 27 -58 l25 0 0 130 0 130 -24 0 c-23 0 -25 -5 -28 -47 l-3 -48 -60
0 -60 0 -3 48 c-3 42 -5 47 -28 47 l-24 0 0 -130z"/>
<path d="M2620 1730 l0 -130 25 0 25 0 0 130 0 130 -25 0 -25 0 0 -130z"/>
<path d="M2990 1731 c0 -124 1 -131 20 -131 18 0 20 7 20 80 0 44 4 80 8 80 4
0 47 -36 95 -81 l87 -81 0 131 c0 124 -1 131 -20 131 -18 0 -20 -7 -20 -81 0
-46 -4 -79 -9 -77 -6 2 -43 35 -83 74 -40 39 -79 74 -85 78 -10 6 -13 -22 -13
-123z"/>
<path d="M3557 1743 c-21 -149 -22 -145 6 -141 19 3 23 11 29 67 4 34 9 68 11
74 2 6 19 -15 38 -46 18 -31 37 -57 40 -57 4 0 22 25 40 55 37 61 47 57 48
-22 1 -55 9 -73 32 -73 14 0 19 7 19 25 0 28 -29 227 -34 232 -1 2 -24 -31
-50 -72 -26 -41 -51 -75 -54 -75 -4 0 -29 34 -56 75 -27 41 -49 75 -51 75 -1
0 -9 -53 -18 -117z"/>
<path d="M3880 1740 c0 -66 -1 -123 -2 -127 -2 -5 32 -9 75 -11 72 -3 77 -1
77 18 0 18 -6 20 -55 20 l-55 0 0 40 0 40 55 0 c48 0 55 2 55 20 0 18 -7 20
-55 20 -54 0 -55 0 -55 30 0 30 1 30 55 30 48 0 55 2 55 20 0 18 -7 20 -75 20
l-75 0 0 -120z"/>
<path d="M1686 1437 c-21 -16 -19 -68 4 -75 12 -4 13 -2 3 9 -20 21 -16 57 7
64 46 14 67 -42 28 -69 -12 -9 -18 -16 -12 -16 16 0 44 34 44 53 0 19 -26 47
-44 47 -7 0 -20 -6 -30 -13z"/>
<path d="M1840 1411 c0 -46 -17 -62 -37 -36 -11 16 -13 16 -13 3 0 -19 24 -30
45 -22 10 4 15 20 15 50 0 24 -2 44 -5 44 -3 0 -5 -18 -5 -39z"/>
<path d="M1887 1443 c-4 -3 -6 -25 -6 -47 1 -23 3 -33 6 -24 2 9 14 18 25 20
12 2 23 9 24 16 1 7 0 8 -3 2 -9 -19 -43 -11 -43 11 0 18 4 20 28 15 20 -5 23
-4 12 4 -17 11 -34 13 -43 3z"/>
<path d="M2033 1405 c0 -27 2 -38 4 -22 2 15 2 37 0 50 -2 12 -4 0 -4 -28z"/>
<path d="M2215 1440 c27 -12 43 -12 25 0 -8 5 -22 9 -30 9 -10 0 -8 -3 5 -9z"/>
<path d="M2363 1405 c0 -27 2 -38 4 -22 2 15 2 37 0 50 -2 12 -4 0 -4 -28z"/>
<path d="M2470 1420 c0 -37 -6 -37 -42 -3 l-28 27 2 -45 c1 -38 2 -40 5 -10
l4 34 35 -34 34 -33 0 47 c0 26 -2 47 -5 47 -3 0 -5 -13 -5 -30z"/>
<path d="M2517 1443 c-10 -10 -8 -83 2 -83 5 0 7 9 4 19 -4 14 1 21 19 24 23
4 23 4 1 6 -13 0 -23 7 -23 15 0 8 10 17 23 19 20 4 20 4 1 6 -11 0 -24 -2
-27 -6z"/>
<path d="M2645 1426 c-8 -13 -13 -31 -9 -40 7 -18 42 -41 51 -33 2 3 -4 8 -15
11 -26 9 -35 32 -21 58 9 16 17 19 42 14 23 -4 28 -3 17 4 -25 16 -49 11 -65
-14z"/>
<path d="M2761 1436 c-16 -19 -10 -68 9 -74 13 -5 13 -3 1 11 -18 22 -6 67 17
67 43 0 56 -49 20 -74 -12 -9 -17 -16 -11 -16 20 0 43 30 43 55 0 39 -55 60
-79 31z"/>
<path d="M2898 1443 c7 -3 16 -2 19 1 4 3 -2 6 -13 5 -11 0 -14 -3 -6 -6z"/>
<path d="M2954 1438 c-4 -6 4 -21 21 -34 31 -24 26 -48 -8 -39 -20 5 -20 5 -3
-6 14 -9 21 -8 35 6 15 15 14 18 -11 39 -33 25 -34 33 -10 39 15 4 15 5 0 6
-9 0 -20 -4 -24 -11z"/>
<path d="M3197 1443 c-4 -3 -6 -25 -6 -47 1 -23 4 -31 6 -19 2 13 13 24 26 26
l22 4 -22 2 c-13 0 -23 7 -23 15 0 8 10 17 23 19 20 4 20 4 1 6 -11 0 -24 -2
-27 -6z"/>
<path d="M3271 1403 c1 -27 3 -40 6 -30 2 9 7 17 10 17 4 0 16 -8 27 -17 20
-17 20 -17 6 1 -12 15 -12 20 -2 23 17 6 15 40 -4 47 -37 14 -44 7 -43 -41z
m44 17 c0 -8 -8 -16 -17 -18 -13 -2 -18 3 -18 18 0 15 5 20 18 18 9 -2 17 -10
17 -18z"/>
<path d="M3363 1405 c0 -27 2 -40 4 -28 2 13 13 24 26 26 l22 4 -22 2 c-14 1
-23 9 -26 24 -2 12 -4 0 -4 -28z"/>
<path d="M3388 1443 c7 -3 16 -2 19 1 4 3 -2 6 -13 5 -11 0 -14 -3 -6 -6z"/>
<path d="M1630 1425 c-7 -8 -15 -13 -19 -10 -4 2 -5 -10 -3 -28 l5 -32 8 28
c4 16 13 35 20 43 6 8 9 14 6 14 -2 0 -10 -7 -17 -15z"/>
<path d="M1792 1420 c0 -14 2 -19 5 -12 2 6 2 18 0 25 -3 6 -5 1 -5 -13z"/>
<path d="M2177 1433 c-16 -16 -6 -63 16 -74 22 -12 22 -12 3 9 -13 15 -16 29
-12 47 6 25 5 30 -7 18z"/>
<path d="M2873 1400 c0 -25 2 -35 4 -23 2 13 13 24 26 26 l22 4 -22 2 c-12 0
-24 9 -26 19 -3 9 -5 -3 -4 -28z"/>
<path d="M3083 1400 c0 -25 2 -35 4 -23 3 16 13 23 36 26 l32 4 -32 1 c-21 1
-33 8 -36 20 -3 9 -5 -3 -4 -28z"/>
<path d="M2083 1393 c-3 -10 -8 -22 -11 -26 -2 -5 5 -3 17 5 17 10 25 10 41 0
18 -11 19 -10 8 14 -7 15 -14 21 -16 15 -2 -6 -10 -11 -18 -11 -9 0 -12 5 -9
10 3 6 4 10 0 10 -3 0 -8 -8 -12 -17z"/>
<path d="M2292 1385 c0 -16 2 -22 5 -12 2 9 2 23 0 30 -3 6 -5 -1 -5 -18z"/>
<path d="M2233 1393 c14 -4 16 -8 6 -19 -7 -8 -7 -14 -1 -14 8 0 22 22 22 36
0 2 -10 3 -22 3 -18 -1 -19 -2 -5 -6z"/>
<path d="M2699 1391 c7 -5 10 -14 7 -20 -4 -6 -5 -11 -2 -11 3 0 10 9 16 20 9
17 8 20 -12 20 -17 0 -19 -3 -9 -9z"/>
</g>
</svg>
